<?xml version="1.0" encoding="UTF-8" standalone="no"?>
<!DOCTYPE svg PUBLIC "-//W3C//DTD SVG 1.1//EN" "http://www.w3.org/Graphics/SVG/1.1/DTD/svg11.dtd">
<svg version="1.1" xmlns="http://www.w3.org/2000/svg" xmlns:xlink="http://www.w3.org/1999/xlink" preserveAspectRatio="xMidYMid meet" viewBox="0 0 640 640" width="640" height="640"><defs><path d="M470.35 234.54C470.35 312.43 405.37 375.67 325.32 375.67C245.27 375.67 180.28 312.43 180.28 234.54C180.28 156.64 245.27 93.4 325.32 93.4C405.37 93.4 470.35 156.64 470.35 234.54Z" id="c47m904j97"></path><path d="M387.89 400.07L450.68 305.32L325.09 305.32L199.5 305.32L262.29 400.07L325.09 494.82L387.89 400.07Z" id="bwI48Mf9q"></path><path d="M382.32 234.54C382.32 266.27 356.78 292.04 325.32 292.04C293.86 292.04 268.32 266.27 268.32 234.54C268.32 202.8 293.86 177.04 325.32 177.04C356.78 177.04 382.32 202.8 382.32 234.54Z" id="g2m8S07qDB"></path></defs><g><g><g><use xlink:href="#c47m904j97" opacity="1" fill="#55bcb7" fill-opacity="1"></use></g><g><use xlink:href="#bwI48Mf9q" opacity="1" fill="#55bcb7" fill-opacity="1"></use></g><g><use xlink:href="#g2m8S07qDB" opacity="1" fill="#ffffff" fill-opacity="1"></use></g></g></g></svg>